<svg width="27" height="31" viewBox="0 0 27 31" fill="none" xmlns="http://www.w3.org/2000/svg">
<path d="M10.5773 12.8831C13.9099 12.8831 16.6146 9.9973 16.6146 6.44156C16.6146 2.88582 13.9099 0 10.5773 0C7.24472 0 4.54003 2.88582 4.54003 6.44156C4.54003 9.9973 7.22055 12.8831 10.5773 12.8831Z" fill="white"/>
<path d="M14.8034 14.4806H14.0065C12.9681 14.9959 11.7848 15.3051 10.5773 15.3051C9.36986 15.3051 8.18654 14.9959 7.12397 14.4806H6.3512C2.84957 14.4806 0 17.521 0 21.2571V23.3442C0 24.6841 1.01428 25.7662 2.27002 25.7662H13.343C13.3174 25.5014 13.3044 25.2328 13.3044 24.961C13.3044 21.0004 16.0837 17.7077 19.7452 17.0348C18.5829 15.4791 16.7962 14.4806 14.8034 14.4806Z" fill="white"/>
<path fill-rule="evenodd" clip-rule="evenodd" d="M26.2127 27.9876C26.7328 27.0679 26.9928 26.059 26.9928 24.961C27.0476 23.863 26.7875 22.8542 26.2127 21.9345C25.6378 21.0148 24.9261 20.2828 24.0775 19.7385C23.2288 19.1942 22.2479 18.9221 21.1347 18.9221C20.0214 18.9221 19.036 19.1942 18.1782 19.7385C17.3205 20.2828 16.6133 21.0148 16.0567 21.9345C15.5 22.8542 15.2354 23.863 15.2628 24.961C15.2902 26.059 15.5548 27.0679 16.0567 27.9876C16.5586 28.9072 17.2657 29.6392 18.1782 30.1835C19.0907 30.7278 20.0762 31 21.1347 31C22.1932 31 23.1741 30.7278 24.0775 30.1835C24.9808 29.6392 25.6926 28.9072 26.2127 27.9876ZM24.9398 23.3281C25.031 23.422 25.0766 23.544 25.0766 23.6941C25.0766 23.8349 25.031 23.9522 24.9398 24.046L20.7925 28.3113C20.6921 28.4052 20.5735 28.4521 20.4366 28.4521C20.2997 28.4521 20.1857 28.4052 20.0944 28.3113L17.3296 25.4678C17.2383 25.374 17.1927 25.2567 17.1927 25.1159C17.1927 24.9657 17.2383 24.8437 17.3296 24.7499L18.0277 24.046C18.128 23.9428 18.2421 23.8912 18.3698 23.8912C18.4976 23.8912 18.6117 23.9428 18.712 24.046L20.4366 25.8197L23.5573 22.6243C23.6577 22.5211 23.7718 22.4694 23.8995 22.4694C24.0273 22.4694 24.1413 22.5211 24.2417 22.6243L24.9398 23.3281Z" fill="white"/>
</svg>
